<svg width="41" height="40" viewBox="0 0 41 40" fill="none" xmlns="http://www.w3.org/2000/svg">
<path fill-rule="evenodd" clip-rule="evenodd" d="M25.0733 19.3362C24.9622 19.0706 24.8531 18.8039 24.7382 18.5371C24.4149 17.7756 24.0658 17.0231 23.7049 16.2834C29.8366 13.7798 32.3253 10.1816 32.3562 10.139C34.5326 12.7833 35.8522 16.1614 35.888 19.845C35.6638 19.7953 30.4078 18.665 25.0733 19.3362ZM29.0415 32.8773C28.8838 31.9413 28.0558 27.3833 26.0182 21.7882C31.0324 20.9871 35.3753 22.3613 35.6956 22.4664C35.0055 26.7933 32.5267 30.5235 29.0415 32.8773ZM20.3644 35.5286C16.6978 35.5286 13.3295 34.2535 10.6712 32.1268C10.6147 32.0841 10.5502 32.0326 10.4709 31.9692C10.5502 32.0326 10.6147 32.0841 10.6712 32.1268C10.7614 32.1972 10.8199 32.2408 10.8199 32.2408C10.8199 32.2408 13.7965 25.7502 23.0058 22.5408C23.0396 22.5279 23.0764 22.519 23.1111 22.5091C25.2953 28.1844 26.1956 32.9397 26.4267 34.2971C24.5646 35.0884 22.5131 35.5286 20.3644 35.5286ZM8.81502 30.3757C6.34015 27.6242 4.83499 23.9884 4.83499 19.9986C4.83499 19.8341 4.84391 19.6713 4.84788 19.5097C5.12353 19.5157 12.796 19.6891 20.7907 17.2967C21.2351 18.1663 21.6604 19.0537 22.05 19.9371C21.8447 19.9926 21.6416 20.0551 21.4384 20.1224C13.0588 22.8293 8.80808 30.3677 8.80808 30.3677C8.80808 30.3677 8.81502 30.3737 8.81502 30.3757ZM13.739 5.95978C13.9462 6.23542 16.8177 10.1281 19.5058 14.9042C12.0494 16.8862 5.57666 16.8069 5.16915 16.8009C6.17555 11.9901 9.40697 8.00327 13.739 5.95978ZM16.6442 4.92464C16.6442 4.92662 16.6422 4.9296 16.6422 4.9296C16.6422 4.9296 16.6234 4.93356 16.5956 4.93753C16.6125 4.93356 16.6274 4.93158 16.6442 4.92464ZM20.3644 4.47351C24.2949 4.47351 27.8853 5.93995 30.62 8.34931C30.5813 8.40782 28.3702 11.775 22.5071 13.9702C19.8538 9.09395 16.9377 5.22011 16.7047 4.91175C17.8787 4.62818 19.1033 4.47351 20.3644 4.47351ZM37.1155 12.9231C36.6624 11.8454 36.0953 10.8063 35.4387 9.83558C34.7913 8.87382 34.0427 7.9666 33.2216 7.14662C32.3987 6.32267 31.4944 5.57706 30.5296 4.92662C29.5589 4.26826 28.5198 3.70607 27.442 3.24898C26.3435 2.78695 25.1933 2.42802 24.0253 2.19104C22.8284 1.94416 21.5969 1.81824 20.3644 1.81824C19.1309 1.81824 17.8995 1.94416 16.7027 2.19104C15.5347 2.42802 14.3845 2.78695 13.2849 3.24898C12.2071 3.70607 11.1689 4.26826 10.1962 4.92662C9.23346 5.57706 8.32917 6.32267 7.5062 7.14662C6.6852 7.9666 5.93857 8.87382 5.28813 9.83558C4.63173 10.8063 4.06557 11.8454 3.61242 12.9231C3.1464 14.0217 2.78846 15.1739 2.5495 16.3409C2.30559 17.5367 2.18164 18.7671 2.18164 19.9986C2.18164 21.235 2.30559 22.4664 2.5495 23.6631C2.78846 24.8311 3.1464 25.9804 3.61242 27.0779C4.06557 28.1548 4.63173 29.1979 5.28813 30.1684C5.93857 31.1313 6.6852 32.0335 7.5062 32.8584C8.32917 33.6795 9.23346 34.4231 10.1962 35.0755C11.1689 35.7319 12.2071 36.2961 13.2849 36.7512C14.3845 37.2172 15.5347 37.5721 16.7027 37.8101C17.8995 38.0579 19.1309 38.1819 20.3644 38.1819C21.5969 38.1819 22.8284 38.0579 24.0253 37.8101C25.1933 37.5721 26.3435 37.2172 27.442 36.7512C28.5198 36.2961 29.5589 35.7319 30.5296 35.0755C31.4944 34.4231 32.3987 33.6795 33.2216 32.8584C34.0427 32.0335 34.7913 31.1313 35.4387 30.1684C36.0953 29.1979 36.6624 28.1548 37.1155 27.0779C37.5795 25.9804 37.9384 24.8311 38.1784 23.6631C38.4213 22.4664 38.5453 21.235 38.5453 19.9986C38.5453 18.7671 38.4213 17.5367 38.1784 16.3409C37.9384 15.1739 37.5795 14.0217 37.1155 12.9231Z" fill="black"/>
<path d="M24.7376 18.5371L24.4028 18.6791L24.4036 18.6811L24.7376 18.5371ZM23.7043 16.2834L23.5668 15.9467L23.207 16.0936L23.3776 16.4428L23.7043 16.2834ZM32.3556 10.139L32.6363 9.9079L32.3365 9.54361L32.0605 9.92632L32.3556 10.139ZM35.8874 19.845L35.8088 20.1999L36.2554 20.2988L36.251 19.8413L35.8874 19.845ZM26.0176 21.7882L25.9603 21.4291L25.5252 21.4986L25.6759 21.9126L26.0176 21.7882ZM35.695 22.4664L36.0541 22.5237L36.1028 22.2175L35.8083 22.121L35.695 22.4664ZM10.6706 32.1268L10.8978 31.8426L10.8895 31.8364L10.6706 32.1268ZM10.6706 32.1268L10.8943 31.84L10.8895 31.8364L10.6706 32.1268ZM10.8193 32.2408L10.6019 32.5322L10.9624 32.8011L11.1498 32.3924L10.8193 32.2408ZM23.0052 22.5408L23.125 22.8844L23.1352 22.8804L23.0052 22.5408ZM23.1105 22.5091L23.4497 22.3784L23.3303 22.068L23.0105 22.1595L23.1105 22.5091ZM26.4261 34.2971L26.5683 34.6319L26.8328 34.5195L26.7847 34.236L26.4261 34.2971ZM4.84726 19.5097L4.85511 19.1462L4.49264 19.1384L4.48373 19.5008L4.84726 19.5097ZM20.7901 17.2967L21.1139 17.1313L20.9761 16.8615L20.6859 16.9483L20.7901 17.2967ZM22.0494 19.9371L22.1445 20.288L22.553 20.1775L22.3821 19.7904L22.0494 19.9371ZM21.4377 20.1224L21.5494 20.4686L21.5521 20.4677L21.4377 20.1224ZM8.80746 30.3677L8.49071 30.1891L8.34395 30.4495L8.57082 30.6439L8.80746 30.3677ZM19.5052 14.9042L19.5987 15.2556L20.0523 15.135L19.8221 14.7258L19.5052 14.9042ZM5.16853 16.8009L4.81258 16.7265L4.72229 17.1581L5.16322 17.1645L5.16853 16.8009ZM16.6416 4.92959L16.7165 5.28543L16.8618 5.25484L16.9442 5.1313L16.6416 4.92959ZM16.595 4.93752L16.5117 4.58355L16.6464 5.2975L16.595 4.93752ZM30.6194 8.3493L30.9227 8.54983L31.0972 8.28574L30.8597 8.07646L30.6194 8.3493ZM22.5065 13.9702L22.1872 14.144L22.3381 14.4215L22.6341 14.3107L22.5065 13.9702ZM16.7041 4.91174L16.6187 4.55826L16.0796 4.68848L16.4139 5.13097L16.7041 4.91174ZM35.4381 9.83557L35.1365 10.0386L35.137 10.0393L35.4381 9.83557ZM33.221 7.14661L32.9637 7.40357L32.9641 7.4039L33.221 7.14661ZM30.529 4.92661L30.325 5.22755L30.3257 5.22812L30.529 4.92661ZM27.4414 3.24897L27.5834 2.91419L27.5825 2.91377L27.4414 3.24897ZM24.0247 2.19103L23.9512 2.54717L23.9523 2.54741L24.0247 2.19103ZM16.7021 2.19103L16.7744 2.54741L16.7755 2.54717L16.7021 2.19103ZM13.2843 3.24897L13.1434 2.91374L13.1423 2.91421L13.2843 3.24897ZM10.1956 4.92661L10.3992 5.22794L10.3994 5.22775L10.1956 4.92661ZM7.50558 7.14661L7.76255 7.4039L7.76286 7.40357L7.50558 7.14661ZM5.28751 9.83557L4.98629 9.63186L4.98627 9.63188L5.28751 9.83557ZM3.6118 12.9231L3.94656 13.0652L3.94702 13.0641L3.6118 12.9231ZM2.54887 16.3409L2.19264 16.2679L2.19258 16.2682L2.54887 16.3409ZM2.54887 23.6631L2.19256 23.7359L2.19262 23.736L2.54887 23.6631ZM3.6118 27.0779L3.94698 26.937L3.94653 26.9359L3.6118 27.0779ZM5.28751 30.1684L5.58882 29.965L5.58873 29.9648L5.28751 30.1684ZM7.50558 32.8584L7.24782 33.115L7.24876 33.1159L7.50558 32.8584ZM10.1956 35.0755L9.99162 35.3764L9.99222 35.377L10.1956 35.0755ZM13.2843 36.7511L13.4261 36.4162L13.4257 36.416L13.2843 36.7511ZM16.7021 37.81L16.7758 37.454L16.7747 37.4537L16.7021 37.81ZM24.0247 37.81L23.9519 37.4537L23.9508 37.454L24.0247 37.81ZM27.4414 36.7511L27.2999 36.416L27.2994 36.4164L27.4414 36.7511ZM30.529 35.0755L30.7328 35.3768L30.529 35.0755ZM33.221 32.8584L33.4779 33.1159L33.4788 33.115L33.221 32.8584ZM35.4381 30.1684L35.137 29.9648L35.1365 29.9655L35.4381 30.1684ZM37.1148 27.0779L36.7799 26.9364L36.7798 26.937L37.1148 27.0779ZM38.1777 23.6631L38.5339 23.7364L38.5341 23.7355L38.1777 23.6631ZM38.1777 16.3409L38.5341 16.2685L38.5339 16.2676L38.1777 16.3409ZM25.4081 19.196C25.2985 18.9337 25.1876 18.6622 25.0714 18.3931L24.4036 18.6811C24.5176 18.9453 24.6247 19.2073 24.7372 19.4764L25.4081 19.196ZM25.0723 18.395C24.7459 17.6263 24.3941 16.8678 24.0312 16.1239L23.3776 16.4428C23.7363 17.1783 24.0827 17.9249 24.4028 18.6791L25.0723 18.395ZM23.8417 16.62C26.9487 15.3515 29.1377 13.8034 30.5572 12.562C31.2667 11.9415 31.7837 11.3977 32.1272 11.0039C32.2988 10.807 32.427 10.6477 32.5141 10.5349C32.5578 10.4785 32.591 10.4339 32.6143 10.402C32.6352 10.3733 32.6539 10.3469 32.6505 10.3516L32.0605 9.92632C32.053 9.93674 29.6136 13.4779 23.5668 15.9467L23.8417 16.62ZM32.0747 10.3701C34.2003 12.9526 35.4888 16.251 35.5237 19.8484L36.251 19.8413C36.2145 16.0718 34.8636 12.614 32.6363 9.9079L32.0747 10.3701ZM35.9659 19.4899C35.7319 19.438 30.4257 18.296 25.0272 18.9755L25.1181 19.697C30.3885 19.0339 35.5945 20.1526 35.8088 20.1999L35.9659 19.4899ZM29.3994 32.817C29.2396 31.8679 28.407 27.2866 26.3592 21.6639L25.6759 21.9126C27.7034 27.48 28.5267 32.0148 28.6821 32.9377L29.3994 32.817ZM26.075 22.1473C31.0039 21.3599 35.2808 22.7133 35.5816 22.8119L35.8083 22.121C35.4687 22.0095 31.0597 20.6144 25.9603 21.4291L26.075 22.1473ZM35.3359 22.4091C34.6621 26.6337 32.2417 30.2766 28.8372 32.5759L29.2443 33.1786C32.8103 30.7702 35.3476 26.9531 36.0541 22.5237L35.3359 22.4091ZM20.3637 35.165C16.783 35.165 13.4942 33.92 10.8977 31.8428L10.4434 32.4106C13.1636 34.587 16.6113 35.8922 20.3637 35.8922V35.165ZM10.8895 31.8364C10.8381 31.7975 10.7781 31.7497 10.6974 31.6851L10.2431 32.253C10.3211 32.3153 10.39 32.3706 10.4516 32.417L10.8895 31.8364ZM10.2431 32.253C10.3211 32.3153 10.39 32.3706 10.4516 32.417L10.8895 31.8364C10.8381 31.7975 10.7781 31.7497 10.6974 31.6851L10.2431 32.253ZM10.4469 32.4135C10.4933 32.4497 10.5317 32.4791 10.5586 32.4995C10.5721 32.5099 10.5827 32.5179 10.59 32.5233C10.5937 32.526 10.5966 32.5282 10.5986 32.5297C10.5996 32.5304 10.6003 32.5311 10.6009 32.5315C10.6012 32.5317 10.6014 32.5319 10.6016 32.532C10.6017 32.532 10.6017 32.532 10.6018 32.5322C10.6018 32.5322 10.6018 32.5322 10.6019 32.5322H10.6019C10.6019 32.5322 10.6019 32.5322 10.6019 32.5322C10.6019 32.5322 10.6019 32.5322 10.8193 32.2408C11.0367 31.9493 11.0367 31.9493 11.0367 31.9493H11.0367C11.0367 31.9493 11.0367 31.9493 11.0367 31.9491C11.0366 31.9491 11.0365 31.9491 11.0363 31.949C11.036 31.9488 11.0354 31.9482 11.0346 31.9477C11.0331 31.9466 11.0307 31.9448 11.0274 31.9422C11.021 31.9375 11.0114 31.9302 10.9989 31.9208C10.9741 31.9019 10.9381 31.8742 10.8942 31.84L10.4469 32.4135ZM10.8193 32.2408C11.1498 32.3924 11.1498 32.3924 11.1497 32.3926H11.1497C11.1497 32.3926 11.1497 32.3926 11.1498 32.3924C11.1499 32.392 11.1503 32.3913 11.1508 32.3902C11.1519 32.3879 11.1537 32.384 11.1562 32.3788C11.1613 32.368 11.1694 32.3515 11.1805 32.3291C11.2028 32.2844 11.2374 32.2168 11.285 32.1286C11.3804 31.9522 11.528 31.694 11.7343 31.373C12.1468 30.7306 12.7934 29.8368 13.7242 28.843C15.5849 26.856 18.583 24.4671 23.125 22.8842L22.8856 22.1975C18.2182 23.824 15.1233 26.285 13.1933 28.3457C12.2288 29.3757 11.5557 30.3051 11.1223 30.98C10.9056 31.3175 10.7487 31.5913 10.6453 31.7826C10.5936 31.8782 10.5553 31.9531 10.5294 32.005C10.5165 32.031 10.5067 32.0511 10.5 32.0653C10.4966 32.0724 10.494 32.0779 10.4921 32.0819C10.4912 32.0839 10.4905 32.0855 10.4899 32.0868C10.4896 32.0873 10.4894 32.0879 10.4892 32.0882C10.4891 32.0884 10.489 32.0886 10.4889 32.0888C10.4888 32.089 10.4888 32.0891 10.8193 32.2408ZM23.1352 22.8804C23.1492 22.8751 23.1561 22.8742 23.2103 22.8588L23.0105 22.1595C22.9952 22.1639 22.9288 22.1808 22.8754 22.2011L23.1352 22.8804ZM22.771 22.6397C24.9437 28.285 25.839 33.0148 26.0676 34.3582L26.7847 34.236C26.5512 32.8646 25.6457 28.084 23.4497 22.3784L22.771 22.6397ZM26.2839 33.9624C24.4657 34.735 22.4625 35.165 20.3637 35.165V35.8922C22.5625 35.8922 24.6623 35.4417 26.5683 34.6319L26.2839 33.9624ZM9.08476 30.1326C6.66755 27.4451 5.198 23.8951 5.198 19.9986H4.47073C4.47073 24.0817 6.01151 27.8033 8.54404 30.619L9.08476 30.1326ZM5.198 19.9986C5.198 19.8384 5.20642 19.6964 5.21078 19.5186L4.48373 19.5008C4.48016 19.6462 4.47073 19.8297 4.47073 19.9986H5.198ZM4.83942 19.8733C5.12556 19.8795 12.8441 20.0542 20.8945 17.6451L20.6859 16.9483C12.7468 19.3242 5.12026 19.1519 4.85511 19.1462L4.83942 19.8733ZM20.4663 17.4621C20.9077 18.3262 21.3301 19.2075 21.7167 20.0839L22.3821 19.7904C21.9894 18.8999 21.561 18.0062 21.1139 17.1313L20.4663 17.4621ZM21.9545 19.586C21.7414 19.6437 21.5314 19.7082 21.3232 19.7773L21.5521 20.4677C21.7505 20.4019 21.947 20.3415 22.1445 20.288L21.9545 19.586ZM21.3259 19.7764C17.06 21.1544 13.8529 23.7591 11.7165 26.0099C10.6474 27.1362 9.84324 28.1771 9.30562 28.9377C9.03673 29.318 8.83426 29.6288 8.69842 29.8453C8.63049 29.9537 8.5792 30.0384 8.54458 30.0968C8.52727 30.1259 8.51413 30.1484 8.50515 30.164C8.50066 30.1717 8.4972 30.1777 8.4948 30.182C8.4936 30.184 8.49266 30.1857 8.49198 30.187C8.49164 30.1875 8.49136 30.188 8.49115 30.1884C8.49104 30.1886 8.49093 30.1888 8.49087 30.189C8.49078 30.189 8.49071 30.1891 8.80746 30.3677C9.12422 30.5464 9.12416 30.5464 9.12415 30.5466C9.12415 30.5464 9.12415 30.5466 9.12416 30.5464C9.12422 30.5464 9.12433 30.5462 9.12451 30.5459C9.12486 30.5453 9.12547 30.5442 9.12635 30.5426C9.12809 30.5395 9.13087 30.5348 9.13467 30.5282C9.14229 30.515 9.15404 30.4948 9.16991 30.468C9.20166 30.4146 9.24987 30.335 9.31453 30.2319C9.44389 30.0255 9.63896 29.726 9.89951 29.3575C10.4208 28.62 11.203 27.6071 12.244 26.5106C14.3278 24.3153 17.4358 21.7973 21.5494 20.4686L21.3259 19.7764ZM8.80746 30.3677C8.57082 30.6439 8.5708 30.6439 8.57078 30.6439C8.57077 30.6439 8.57075 30.6439 8.57073 30.6439C8.57071 30.6439 8.57067 30.6437 8.57064 30.6437C8.57058 30.6437 8.57053 30.6437 8.57047 30.6435C8.57035 30.6435 8.57024 30.6433 8.57011 30.6433C8.56987 30.6431 8.56964 30.6428 8.5694 30.6426C8.56891 30.6422 8.56842 30.6419 8.56793 30.6413C8.56693 30.6404 8.56582 30.6395 8.56458 30.6384C8.56247 30.6364 8.55862 30.633 8.55382 30.628C8.55055 30.625 8.53922 30.6135 8.52629 30.597C8.52009 30.589 8.50706 30.5715 8.49395 30.5471C8.48718 30.5346 8.47767 30.5153 8.46935 30.4902C8.46142 30.4664 8.45076 30.4264 8.45076 30.3757H9.17804C9.17804 30.2835 9.14265 30.2179 9.13427 30.2024C9.12078 30.1773 9.10718 30.1591 9.10035 30.1504C9.08611 30.132 9.07306 30.1188 9.06806 30.1139C9.06153 30.1073 9.05591 30.1022 9.05251 30.0991C9.05064 30.0973 9.04896 30.0959 9.0476 30.0948C9.04691 30.094 9.04627 30.0935 9.04569 30.093C9.0454 30.0928 9.04511 30.0926 9.04486 30.0922C9.04473 30.0922 9.0446 30.092 9.04447 30.092C9.0444 30.0919 9.04435 30.0919 9.04427 30.0919C9.04426 30.0919 9.04422 30.0917 9.04418 30.0917H9.04415C9.04413 30.0917 9.04411 30.0917 8.80746 30.3677ZM13.4477 6.17828C13.6497 6.44699 16.511 10.3256 19.1883 15.0825L19.8221 14.7258C17.1232 9.93057 14.2415 6.02383 14.029 5.74124L13.4477 6.17828ZM19.4117 14.5528C12.0022 16.5223 5.56764 16.4431 5.17384 16.4373L5.16322 17.1645C5.58446 17.1707 12.0954 17.2501 19.5987 15.2556L19.4117 14.5528ZM5.52446 16.8754C6.50707 12.1784 9.66258 8.28446 13.8935 6.28864L13.5832 5.63088C9.15011 7.72208 5.8428 11.8019 4.81258 16.7265L5.52446 16.8754ZM16.2799 4.92463C16.2799 4.87012 16.2924 4.82884 16.2983 4.81124C16.3053 4.79034 16.3128 4.77435 16.3173 4.76523C16.3223 4.75534 16.3268 4.74743 16.3301 4.74199C16.3318 4.73912 16.3334 4.73652 16.3349 4.73423C16.3356 4.73306 16.3363 4.73195 16.337 4.7309C16.3374 4.73037 16.3377 4.72986 16.3381 4.72935C16.3382 4.7291 16.3384 4.72886 16.3385 4.72861C16.3386 4.72848 16.3387 4.72835 16.3388 4.72824C16.3388 4.72817 16.3389 4.72812 16.3389 4.72806C16.3389 4.72803 16.339 4.72797 16.339 4.72797C16.339 4.72792 16.339 4.72788 16.6416 4.92959C16.9442 5.1313 16.9442 5.13124 16.9442 5.13121C16.9442 5.13119 16.9443 5.13115 16.9443 5.13112C16.9443 5.13106 16.9444 5.13099 16.9444 5.13094C16.9445 5.13081 16.9446 5.13068 16.9447 5.13055C16.9448 5.13032 16.945 5.13006 16.9451 5.12979C16.9455 5.12928 16.9458 5.12875 16.9462 5.12819C16.9469 5.1271 16.9477 5.12594 16.9485 5.12468C16.95 5.12223 16.9518 5.11937 16.9537 5.11619C16.9573 5.11014 16.9624 5.10135 16.9678 5.09048C16.9697 5.08663 17.0072 5.01828 17.0072 4.92463H16.2799ZM16.6416 4.92959C16.5667 4.57375 16.5667 4.57375 16.5667 4.57374H16.5667C16.5668 4.57374 16.5668 4.57372 16.5668 4.57372C16.5669 4.57372 16.5669 4.5737 16.5669 4.5737C16.567 4.57368 16.5671 4.57366 16.5672 4.57364C16.5673 4.57363 16.5674 4.57359 16.5675 4.57357C16.5678 4.57352 16.5679 4.5735 16.568 4.57346C16.5682 4.57343 16.5682 4.57344 16.5679 4.5735C16.5673 4.57361 16.5659 4.5739 16.5637 4.5743C16.5592 4.5751 16.5522 4.57632 16.5436 4.57754L16.6464 5.2975C16.6656 5.29475 16.6819 5.29201 16.6938 5.28983C16.6997 5.28875 16.7047 5.28779 16.7086 5.28703C16.7105 5.28666 16.7121 5.28634 16.7134 5.28606C16.7141 5.28592 16.7147 5.28581 16.7152 5.2857C16.7155 5.28564 16.7157 5.28559 16.7159 5.28555C16.716 5.28552 16.7161 5.2855 16.7162 5.28548C16.7163 5.28546 16.7163 5.28546 16.7164 5.28544C16.7164 5.28544 16.7164 5.28544 16.7164 5.28544C16.7165 5.28543 16.7165 5.28543 16.7165 5.28543C16.7165 5.28543 16.7165 5.28543 16.6416 4.92959ZM16.6783 5.29148C16.6779 5.29157 16.6782 5.2915 16.6826 5.29057C16.6858 5.2899 16.6937 5.28823 16.7023 5.28623C16.7211 5.28181 16.7493 5.27434 16.782 5.26088L16.5051 4.58837C16.521 4.58186 16.5333 4.57884 16.5363 4.57815C16.5369 4.57801 16.5369 4.57801 16.5321 4.57904C16.5284 4.57983 16.5205 4.58148 16.5117 4.58355L16.6783 5.29148ZM20.3637 4.83714C24.2021 4.83714 27.7079 6.26883 30.3788 8.62215L30.8597 8.07646C28.0614 5.61104 24.3865 4.10986 20.3637 4.10986V4.83714ZM30.3159 8.14877C30.3065 8.1631 28.1505 11.4687 22.379 13.6296L22.6341 14.3107C28.5885 12.0813 30.8548 8.6525 30.9227 8.54983L30.3159 8.14877ZM22.8259 13.7964C20.1599 8.89674 17.2313 5.00624 16.9942 4.69252L16.4139 5.13097C16.6429 5.43395 19.5465 9.29112 22.1872 14.144L22.8259 13.7964ZM16.7894 5.26521C17.9366 4.98812 19.1325 4.83714 20.3637 4.83714V4.10986C19.0727 4.10986 17.8195 4.26821 16.6187 4.55826L16.7894 5.26521ZM37.4501 12.7822C36.9874 11.6817 36.4087 10.6216 35.7394 9.63188L35.137 10.0393C35.7805 10.9909 36.3361 12.0091 36.7796 13.0641L37.4501 12.7822ZM35.7397 9.6325C35.0792 8.65114 34.3156 7.72577 33.4781 6.88932L32.9641 7.4039C33.7687 8.20739 34.5023 9.0965 35.1365 10.0386L35.7397 9.6325ZM33.4783 6.88963C32.6388 6.04914 31.7165 5.28859 30.7323 4.6251L30.3257 5.22812C31.2712 5.86548 32.1574 6.59619 32.9637 7.40357L33.4783 6.88963ZM30.7332 4.62566C29.7425 3.95368 28.6825 3.38028 27.5834 2.91421L27.2994 3.58375C28.3561 4.03184 29.3743 4.58281 30.325 5.22755L30.7332 4.62566ZM27.5825 2.91377C26.4625 2.44275 25.2892 2.07657 24.0968 1.83466L23.9523 2.54741C25.0959 2.77944 26.2232 3.13112 27.3005 3.58417L27.5825 2.91377ZM24.0981 1.8349C22.877 1.58301 21.6208 1.45459 20.3637 1.45459V2.18186C21.5717 2.18186 22.7785 2.30528 23.9512 2.54717L24.0981 1.8349ZM20.3637 1.45459C19.1057 1.45459 17.8496 1.58301 16.6286 1.8349L16.7755 2.54717C17.9481 2.30528 19.155 2.18186 20.3637 2.18186V1.45459ZM16.6298 1.83466C15.4374 2.07657 14.2643 2.44274 13.1434 2.91374L13.4251 3.58423C14.5034 3.13112 15.6307 2.77944 16.7744 2.54741L16.6298 1.83466ZM13.1423 2.91421C12.0432 3.38032 10.9843 3.9537 9.99178 4.62546L10.3994 5.22775C11.3523 4.58279 12.3697 4.03181 13.4262 3.58375L13.1423 2.91421ZM9.99206 4.6253C9.01007 5.2887 8.08778 6.04914 7.24829 6.88963L7.76286 7.40357C8.56931 6.59617 9.45558 5.86539 10.3992 5.22794L9.99206 4.6253ZM7.2486 6.88932C6.41087 7.72601 5.64949 8.65123 4.98629 9.63186L5.58873 10.0393C6.22642 9.09639 6.95829 8.20715 7.76255 7.4039L7.2486 6.88932ZM4.98627 9.63188C4.31689 10.6218 3.73922 11.6818 3.2766 12.7822L3.94702 13.0641C4.39066 12.0089 4.94533 10.9908 5.58873 10.0393L4.98627 9.63188ZM3.27704 12.7811C2.80156 13.902 2.43644 15.0773 2.19264 16.2679L2.90513 16.4138C3.13926 15.2704 3.49002 14.1414 3.94656 13.0652L3.27704 12.7811ZM2.19258 16.2682C1.94375 17.488 1.81738 18.7428 1.81738 19.9986H2.54466C2.54466 18.7913 2.66616 17.5852 2.90518 16.4136L2.19258 16.2682ZM1.81738 19.9986C1.81738 21.2591 1.94374 22.515 2.19256 23.7359L2.90518 23.5906C2.66618 22.4179 2.54466 21.2108 2.54466 19.9986H1.81738ZM2.19262 23.736C2.43646 24.9279 2.80164 26.1002 3.27709 27.22L3.94653 26.9359C3.48995 25.8604 3.13922 24.7344 2.90513 23.5902L2.19262 23.736ZM3.27664 27.219C3.73909 28.3179 4.31667 29.382 4.98627 30.3722L5.58873 29.9648C4.94555 29.0137 4.39078 27.9915 3.94698 26.937L3.27664 27.219ZM4.98618 30.372C5.64984 31.3544 6.41116 32.2742 7.24784 33.115L7.76333 32.6019C6.958 31.7928 6.22607 30.908 5.58882 29.965L4.98618 30.372ZM7.24876 33.1159C8.08822 33.9533 9.01024 34.7115 9.99162 35.3764L10.3996 34.7744C9.45542 34.1346 8.56887 33.4055 7.76238 32.601L7.24876 33.1159ZM9.99222 35.377C10.9841 36.0462 12.043 36.6217 13.1428 37.086L13.4257 36.416C12.3699 35.9702 11.3525 35.4175 10.399 34.774L9.99222 35.377ZM13.1424 37.0859C14.2646 37.5615 15.4381 37.9237 16.6295 38.1664L16.7747 37.4537C15.63 37.2206 14.5031 36.8728 13.4261 36.4162L13.1424 37.0859ZM16.6283 38.166C17.8499 38.4191 19.1061 38.5455 20.3637 38.5455V37.8182C19.1547 37.8182 17.9478 37.6968 16.7758 37.454L16.6283 38.166ZM20.3637 38.5455C21.6205 38.5455 22.8768 38.4191 24.0983 38.166L23.9508 37.454C22.7788 37.6968 21.5721 37.8182 20.3637 37.8182V38.5455ZM24.0972 38.1664C25.2887 37.9237 26.4621 37.5615 27.5834 37.0859L27.2994 36.4164C26.2236 36.8728 25.0967 37.2206 23.9519 37.4537L24.0972 38.1664ZM27.5828 37.086C28.6825 36.6217 29.7425 36.0462 30.7328 35.3768L30.3254 34.7742C29.3741 35.4175 28.3559 35.9702 27.2999 36.416L27.5828 37.086ZM30.7328 35.3768C31.7163 34.7115 32.6385 33.9533 33.4779 33.1159L32.9643 32.601C32.1577 33.4055 31.2714 34.1346 30.3254 34.7742L30.7328 35.3768ZM33.4788 33.115C34.3152 32.2746 35.0788 31.3544 35.7399 30.3713L35.1365 29.9655C34.5027 30.908 33.7688 31.7924 32.9634 32.6019L33.4788 33.115ZM35.7394 30.3722C36.4088 29.382 36.9876 28.318 37.4501 27.219L36.7798 26.937C36.3359 27.9913 35.7803 29.0135 35.137 29.9648L35.7394 30.3722ZM37.4497 27.2195C37.923 26.1002 38.2892 24.9282 38.5339 23.7364L37.8216 23.59C37.5865 24.7342 37.2348 25.8604 36.7799 26.9364L37.4497 27.2195ZM38.5341 23.7355C38.7819 22.5148 38.9083 21.2591 38.9083 19.9986H38.181C38.181 21.2108 38.0596 22.418 37.8214 23.5908L38.5341 23.7355ZM38.9083 19.9986C38.9083 18.7428 38.7819 17.4881 38.5341 16.2685L37.8214 16.4133C38.0596 17.5851 38.181 18.7913 38.181 19.9986H38.9083ZM38.5339 16.2676C38.2892 15.077 37.923 13.902 37.4499 12.7816L36.7799 13.0646C37.2347 14.1414 37.5865 15.2707 37.8216 16.4141L38.5339 16.2676Z" fill="black"/>
</svg>
