<svg width="37" height="38" viewBox="0 0 37 38" fill="none" xmlns="http://www.w3.org/2000/svg">
<path fill-rule="evenodd" clip-rule="evenodd" d="M18.1818 0.817871C13.2439 0.817871 12.6248 0.838801 10.6855 0.927285C8.75024 1.01555 7.42853 1.32294 6.27204 1.77243C5.07642 2.23701 4.06247 2.85871 3.05162 3.86949C2.04084 4.88034 1.41913 5.89429 0.954558 7.08991C0.505066 8.2464 0.197682 9.56811 0.109414 11.5033C0.0209302 13.4426 0 14.0618 0 18.9997C0 23.9375 0.0209302 24.5568 0.109414 26.4961C0.197682 28.4313 0.505066 29.753 0.954558 30.9095C1.41913 32.1051 2.04084 33.119 3.05162 34.1299C4.06247 35.1406 5.07642 35.7624 6.27204 36.227C7.42853 36.6764 8.75024 36.9839 10.6855 37.0721C12.6248 37.1606 13.2439 37.1815 18.1818 37.1815C23.1196 37.1815 23.7389 37.1606 25.6782 37.0721C27.6135 36.9839 28.9351 36.6764 30.0916 36.227C31.2873 35.7624 32.3011 35.1406 33.312 34.1299C34.3227 33.119 34.9445 32.1051 35.4091 30.9095C35.8585 29.753 36.166 28.4313 36.2542 26.4961C36.3427 24.5568 36.3636 23.9375 36.3636 18.9997C36.3636 14.0618 36.3427 13.4426 36.2542 11.5033C36.166 9.56811 35.8585 8.2464 35.4091 7.08991C34.9445 5.89429 34.3227 4.88034 33.312 3.86949C32.3011 2.85871 31.2873 2.23701 30.0916 1.77243C28.9351 1.32294 27.6135 1.01555 25.6782 0.927285C23.7389 0.838801 23.1196 0.817871 18.1818 0.817871ZM18.1818 4.09387C23.0365 4.09387 23.6116 4.11242 25.5289 4.19989C27.3015 4.28073 28.2642 4.57693 28.9049 4.82593C29.7536 5.15574 30.3593 5.54974 30.9955 6.18602C31.6318 6.82222 32.0258 7.42789 32.3556 8.27658C32.6046 8.91725 32.9007 9.87996 32.9816 11.6527C33.0691 13.5699 33.0876 14.1449 33.0876 18.9997C33.0876 23.8544 33.0691 24.4295 32.9816 26.3468C32.9007 28.1193 32.6046 29.0821 32.3556 29.7228C32.0258 30.5715 31.6318 31.1771 30.9955 31.8133C30.3593 32.4497 29.7536 32.8437 28.9049 33.1735C28.2642 33.4224 27.3015 33.7186 25.5289 33.7995C23.612 33.887 23.0369 33.9055 18.1818 33.9055C13.3267 33.9055 12.7518 33.887 10.8348 33.7995C9.06209 33.7186 8.09938 33.4224 7.45871 33.1735C6.61002 32.8437 6.00435 32.4497 5.36815 31.8133C4.73195 31.1771 4.33787 30.5715 4.00806 29.7228C3.75906 29.0821 3.46285 28.1193 3.38202 26.3468C3.29455 24.4295 3.276 23.8544 3.276 18.9997C3.276 14.1449 3.29455 13.5699 3.38202 11.6527C3.46285 9.87996 3.75906 8.91725 4.00806 8.27658C4.33787 7.42789 4.73187 6.82222 5.36815 6.18602C6.00435 5.54974 6.61002 5.15574 7.45871 4.82593C8.09938 4.57693 9.06209 4.28073 10.8348 4.19989C12.752 4.11242 13.3271 4.09387 18.1818 4.09387ZM8.84522 18.9997C8.84522 13.8432 13.0253 9.66309 18.1818 9.66309C23.3384 9.66309 27.5184 13.8432 27.5184 18.9997C27.5184 24.1562 23.3384 28.3362 18.1818 28.3362C13.0253 28.3362 8.84522 24.1562 8.84522 18.9997ZM18.1818 25.0602C14.8346 25.0602 12.1212 22.347 12.1212 18.9997C12.1212 15.6525 14.8346 12.9391 18.1818 12.9391C21.5291 12.9391 24.2424 15.6525 24.2424 18.9997C24.2424 22.347 21.5291 25.0602 18.1818 25.0602ZM27.8873 11.476C29.0924 11.476 30.0691 10.4992 30.0691 9.29422C30.0691 8.08922 29.0924 7.11236 27.8873 7.11236C26.6824 7.11236 25.7055 8.08922 25.7055 9.29422C25.7055 10.4992 26.6824 11.476 27.8873 11.476Z" fill="black"/>
</svg>
